<svg xmlns="http://www.w3.org/2000/svg" xmlns:xlink="http://www.w3.org/1999/xlink" version="1.1" x="0px" y="0px" viewBox="0 0 100 125" style="enable-background:new 0 0 100 100;" xml:space="preserve"><path d="M16.7866974,20.5952148c0.4863281,0,0.9658203-0.0810547,1.4335938-0.2416992  c0.9941406,0.8173828,2.2216797,1.2607422,3.5224609,1.2607422c1.300293,0,2.527832-0.4433594,3.5229492-1.2607422  c0.4672852,0.1606445,0.9472656,0.2416992,1.4335938,0.2416992c2.3931274,0,4.3405762-1.8569336,4.5300293-4.2020874  c0.7384644-0.2051392,1.4331665-0.5441284,2.036377-1.0396118c0.4672852,0.1606445,0.9472656,0.2416992,1.4335938,0.2416992  c2.5180664,0,4.5668945-2.0488281,4.5668945-4.5668945c0-2.5185547-2.0488281-4.5673828-4.5668945-4.5673828  c-0.4863281,0-0.9663086,0.0810547-1.434082,0.2416992c-0.9946289-0.8173828-2.222168-1.2607422-3.5224609-1.2607422  c-1.2998047,0-2.5273438,0.4433594-3.5224609,1.2612305c-0.4677734-0.1611328-0.9477539-0.2421875-1.4335938-0.2421875  c-2.3930054,0-4.34021,1.8566284-4.5299683,4.2020264c-0.7385864,0.2052002-1.4334106,0.5443115-2.036438,1.0401611  c-0.4677734-0.1606445-0.9472656-0.2416992-1.4335938-0.2416992c-2.5180674,0-4.5668955,2.0488281-4.5668955,4.5668945  S14.26863,20.5952148,16.7866974,20.5952148z M24.7866974,8.4609375c0.3945313,0,0.7900391,0.1020508,1.175293,0.3027344  c0.3969727,0.2055664,0.8803711,0.125,1.1875-0.1977539c1.3769531-1.4501953,3.8100586-1.4501953,5.1870117,0  c0.3066406,0.3227539,0.7919922,0.4023438,1.1875,0.1977539c0.3847656-0.2011719,0.7802734-0.3027344,1.175293-0.3027344  c1.4155273,0,2.5668945,1.1518555,2.5668945,2.5673828s-1.1513672,2.5668945-2.5668945,2.5668945  c-0.3955078,0-0.7910156-0.1015625-1.175293-0.3022461c-0.3950195-0.2055664-0.8798828-0.125-1.1875,0.1977539  c-1.3759766,1.4492188-3.8110352,1.4492188-5.1870117,0c-0.1938477-0.2036133-0.4575195-0.3110352-0.7255859-0.3110352  c-0.1572266,0-0.3154297,0.0371094-0.4619141,0.1132813c-0.3847656,0.2006836-0.7802734,0.3022461-1.175293,0.3022461  c-1.4155273,0-2.5668945-1.1513672-2.5668945-2.5668945S23.37117,8.4609375,24.7866974,8.4609375z M16.7866974,13.4614258  c0.3950195,0,0.7905273,0.1015625,1.175293,0.3022461c0.3969727,0.2060547,0.8813477,0.1254883,1.1875-0.1982422  c0.3935547-0.4144897,0.8775635-0.6965332,1.3947144-0.8739624c0.6674805,1.6959839,2.3125,2.9037476,4.2424927,2.9037476  c0.4863281,0,0.9663086-0.0810547,1.4335938-0.2416992c0.8556519,0.703186,1.8880005,1.1094971,2.9863892,1.2149048  c-0.2490234,1.1565552-1.2774048,2.0267944-2.5073853,2.0267944c-0.3955078,0-0.7910156-0.1015625-1.175293-0.3022461  c-0.3950195-0.206543-0.8798828-0.1254883-1.1875,0.1977539c-1.3759766,1.4492188-3.8110352,1.4487305-5.1870117,0.0004883  c-0.1933594-0.2041016-0.4575195-0.3115234-0.7255859-0.3115234c-0.1572266,0-0.3154297,0.0371094-0.4619141,0.1132813  c-0.3847656,0.2006836-0.7802734,0.3022461-1.175293,0.3022461c-1.4155283,0-2.5668955-1.1513672-2.5668955-2.5668945  S15.3711691,13.4614258,16.7866974,13.4614258z M65.7866974,20.5952148c0.4863281,0,0.9667969-0.0810547,1.4335938-0.2416992  c0.9951172,0.8173828,2.2226563,1.2607422,3.5234375,1.2607422c1.2998047,0,2.5273438-0.4433594,3.5224609-1.2607422  c0.4667969,0.1606445,0.9472656,0.2416992,1.4335938,0.2416992c2.5175781,0,4.5664063-2.0488281,4.5664063-4.5668945  s-2.0488281-4.5668945-4.5664063-4.5668945c-0.4863281,0-0.9667969,0.0810547-1.4335938,0.2416992  c-0.9951172-0.8178711-2.2226563-1.2612305-3.5224609-1.2612305c-1.3007813,0-2.5283203,0.4433594-3.5234375,1.2612305  c-0.4667969-0.1606445-0.9472656-0.2416992-1.4335938-0.2416992c-2.5175781,0-4.5664063,2.0488281-4.5664063,4.5668945  S63.2691193,20.5952148,65.7866974,20.5952148z M65.7866974,13.4614258c0.3955078,0,0.7910156,0.1015625,1.1748047,0.3022461  c0.3955078,0.2055664,0.8808594,0.1254883,1.1875-0.1977539c1.3769531-1.4492188,3.8105469-1.4511719,5.1884766,0  c0.3066406,0.3232422,0.7919922,0.4038086,1.1875,0.1977539c0.3837891-0.2006836,0.7792969-0.3022461,1.1748047-0.3022461  c1.4150391,0,2.5664063,1.1513672,2.5664063,2.5668945s-1.1513672,2.5668945-2.5664063,2.5668945  c-0.3955078,0-0.7910156-0.1015625-1.1748047-0.3022461c-0.3964844-0.206543-0.8818359-0.1264648-1.1875,0.1977539  c-1.3769531,1.4492188-3.8115234,1.4492188-5.1884766,0c-0.1933594-0.2036133-0.4570313-0.3110352-0.7246094-0.3110352  c-0.1572266,0-0.3164063,0.0371094-0.4628906,0.1132813c-0.3837891,0.2006836-0.7792969,0.3022461-1.1748047,0.3022461  c-1.4150391,0-2.5664063-1.1513672-2.5664063-2.5668945S64.3716583,13.4614258,65.7866974,13.4614258z M40.2354279,45.753418  h-6.7558594c-0.5522461,0-1,0.4477539-1,1v6.2890625c0,0.5527344,0.4477539,1,1,1h6.7558594c0.5522461,0,1-0.4472656,1-1V46.753418  C41.2354279,46.2011719,40.787674,45.753418,40.2354279,45.753418z M39.2354279,52.0424805h-4.7558594V47.753418h4.7558594  V52.0424805z M52.1812286,45.753418H45.424881c-0.5522461,0-1,0.4477539-1,1v6.2890625c0,0.5527344,0.4477539,1,1,1h6.7563477  c0.5527344,0,1-0.4472656,1-1V46.753418C53.1812286,46.2011719,52.733963,45.753418,52.1812286,45.753418z M51.1812286,52.0424805  H46.424881V47.753418h4.7563477V52.0424805z M64.1265411,45.753418h-6.7558594c-0.5527344,0-1,0.4477539-1,1v6.2890625  c0,0.5527344,0.4472656,1,1,1h6.7558594c0.5527344,0,1-0.4472656,1-1V46.753418  C65.1265411,46.2011719,64.6792755,45.753418,64.1265411,45.753418z M63.1265411,52.0424805h-4.7558594V47.753418h4.7558594  V52.0424805z M48.803299,29.3544922c-3.7597656,0-6.8183594,3.0585938-6.8183594,6.8183594s3.0585938,6.8183594,6.8183594,6.8183594  s6.8183594-3.0585938,6.8183594-6.8183594S52.5630646,29.3544922,48.803299,29.3544922z M48.803299,40.9912109  c-2.6567383,0-4.8183594-2.1616211-4.8183594-4.8183594s2.1616211-4.8183594,4.8183594-4.8183594  c2.6572266,0,4.8183594,2.1616211,4.8183594,4.8183594S51.4605255,40.9912109,48.803299,40.9912109z M48.803299,32.0205078  c-2.2895508,0-4.1523438,1.862793-4.1523438,4.1523438s1.862793,4.1523438,4.1523438,4.1523438  s4.1523438-1.862793,4.1523438-4.1523438S51.0928497,32.0205078,48.803299,32.0205078z M51.3028107,36.8227539h0.2704468  c-0.246521,1.0496826-1.0704346,1.8743286-2.1200562,2.1209717v-0.270874c0-0.3588867-0.2910156-0.6499023-0.6499023-0.6499023  s-0.6499023,0.2910156-0.6499023,0.6499023v0.2709351c-1.0496826-0.2466431-1.8743896-1.0713501-2.1210327-2.1210327h0.2709351  c0.3588867,0,0.6499023-0.2910156,0.6499023-0.6499023s-0.2910156-0.6499023-0.6499023-0.6499023h-0.2709351  c0.2466431-1.0496826,1.0713501-1.8743896,2.1210327-2.1210327v0.2709351c0,0.3588867,0.2910156,0.6499023,0.6499023,0.6499023  s0.6499023-0.2910156,0.6499023-0.6499023v-0.270874c1.0496216,0.2466431,1.8735352,1.0712891,2.1200562,2.1209717h-0.2704468  c-0.3588867,0-0.6499023,0.2910156-0.6499023,0.6499023S50.943924,36.8227539,51.3028107,36.8227539z M99.5572052,67.472168  l-1.6035156-13.5390625c-0.0029297-0.0273438-0.0078125-0.0546875-0.0136719-0.0820313  c-0.5810547-2.8583984-2.6103516-5.2441406-5.2958984-6.2260742c-0.6367188-0.234375-1.3378906-0.190918-1.9726563,0.1186523  c-0.0787964,0.0385132-0.1689453,0.0742798-0.2587891,0.1099854V46.567749  c1.4311523-1.015625,2.5910645-2.5599976,3.3466187-4.3079224c0.098877,0.0218506,0.1951294,0.0521851,0.296936,0.0634155  c0.1103516,0.012207,0.2197266,0.0180664,0.3291016,0.0180664c1.4033203,0,2.6425781-0.9892578,2.8964844-2.3706055  c0.1329956-0.7260742-0.0324707-1.4473877-0.4640503-2.0323486c0.1767578-0.5799561,0.2785034-1.2227783,0.2785034-1.9593506V34.5  c0-4.8515625-4.2333984-8.7988281-9.4365234-8.7988281h-1.875c-5.203125,0-9.4355469,3.9472656-9.4355469,8.7988281v1.4790039  c0,0.4341431,0.0343018,0.8365479,0.0953369,1.215332h-6.8505859c-0.2739258-0.5343628-0.6741943-0.99823-1.182251-1.3393555  v0.0004883l-17.7099609-11.890625c-0.2824097-0.1895752-0.5853882-0.3313599-0.8984375-0.4281616v-3.2920532h6.1416016  c1.1025391,0,2-0.8969727,2-2v-3.46875c0-1.1030273-0.8974609-2-2-2H48.803299c-0.5522461,0-1,0.4477539-1,1v9.7605591  c-0.3131104,0.0967407-0.616333,0.2385864-0.8989258,0.4284058L29.1953888,35.8549805  c-0.5083008,0.3411255-0.9086914,0.8049927-1.1826782,1.3393555h-4.3883057l0.0275269-2.6948242  c0-4.8515625-4.2333984-8.7988281-9.4365244-8.7988281h-1.8740234c-5.2031245,0-9.4365234,3.9472656-9.4365234,8.809082  l0.0389404,3.8292847c-0.2460938,0.499939-0.3294678,1.0635376-0.2244873,1.6316528  c0.0471802,0.2570801,0.1382446,0.4946289,0.2484131,0.7207031l0.0240479,2.3623047  c0,1.3891602,1.1303711,2.5195313,2.5195313,2.5195313h2.920959c0.1821289,0.1864624,0.3702393,0.3630371,0.5648804,0.5302734  v1.5159302C8.4558249,47.4388428,7.885757,47.4314575,7.3570094,47.625  c-2.6879883,0.9824219-4.7182617,3.3696289-5.3110352,6.3110352L0.4429469,67.472168  c-0.0336914,0.2832031,0.0556641,0.5673828,0.2456055,0.78125c0.0327148,0.0368652,0.0791626,0.0542603,0.116394,0.0855103  L0.7740016,68.597168c-0.0961914,0.8037109,0.1567383,1.6113281,0.6938477,2.2167969s1.3085938,0.9521484,2.1176758,0.9521484  h0.927063l-0.1726685,6.0390625c-0.0078125,0.2695313,0.0942383,0.53125,0.2822266,0.7255859  c0.1884766,0.1933594,0.4472656,0.3027344,0.7172852,0.3027344h0.5566406v10.4942017  c-1.9743042,0.2288818-3.5175781,1.8919678-3.5175781,3.9266968c0,0.71875,0.5849609,1.3037109,1.3037109,1.3037109h7.9243159  c0.71875,0,1.3037109-0.5849609,1.3037109-1.3037109v-1.3105469c0-0.6176147-0.2200317-1.1794434-0.5742188-1.6315918  c0.008667-0.1000977,0.0220337-0.197998,0.0219727-0.302002l0.2749023-11.1767578h1.2905884l0.274353,11.1523438  c0,0.1121826,0.0136719,0.2177734,0.0234375,0.3252563c-0.3547363,0.4523315-0.5751953,1.0146484-0.5751953,1.6327515v1.3105469  c0,0.71875,0.5849609,1.3037109,1.3037109,1.3037109h7.9243174c0.71875,0,1.3037109-0.5849609,1.3037109-1.3037109  c0-2.0346069-1.5429688-3.6975708-3.5171509-3.9266357l-0.0004883-10.4942627h0.5567017  c0.2700195,0,0.5288086-0.109375,0.7172852-0.3027344c0.1879883-0.1943359,0.2900391-0.4560547,0.2822266-0.7255859  l-0.1725464-6.0390625h0.9269409c0.2327881,0,0.460022-0.036377,0.6820068-0.0917969h52.6946411  c0.2221069,0.0554199,0.4495239,0.0917969,0.6824341,0.0917969h1.1845703v17.2890625  c0,0.1835938,0.020813,0.361084,0.0545044,0.5333252c-1.4347534,0.5995483-2.446106,2.0160522-2.446106,3.6658936  c0,0.71875,0.5849609,1.3037109,1.3037109,1.3037109h7.9238281c0.71875,0,1.3037109-0.5849609,1.3037109-1.3037109v-1.3105469  c0-0.6915894-0.2714844-1.3168335-0.7052612-1.7906494c0.1436768-0.3242798,0.2319336-0.6834106,0.2316284-1.0657959  l0.4599609-14.1611328c0.0048828-0.1328125,0.1591797-0.2744141,0.3818359-0.2744141  c0.2236328,0,0.3779297,0.1416016,0.3828125,0.2744141l0.4580078,14.1289063c0,0.3948364,0.0899658,0.7629395,0.2359619,1.0939331  c-0.4359131,0.4743042-0.7086182,1.1012573-0.7086182,1.7947388v1.3105469c0,0.71875,0.5849609,1.3037109,1.3037109,1.3037109  h7.9238281c0.71875,0,1.3037109-0.5849609,1.3037109-1.3037109c0-1.6498413-1.0113525-3.0663452-2.446106-3.6658936  c0.0336914-0.1722412,0.0545044-0.3497314,0.0545044-0.5333252l-0.0018311-17.2890625h1.1864014  c0.8095703,0,1.5820313-0.3476563,2.1191406-0.953125s0.7890625-1.4130859,0.6933594-2.2158203l-0.0310669-0.2590942  c0.0367432-0.0309448,0.0827637-0.0481567,0.1150513-0.0846558C99.5015411,68.0395508,99.5904083,67.7553711,99.5572052,67.472168z   M49.803299,14.7758789h6.1416016l0.0009766,3.46875H49.803299V14.7758789z M21.8706818,39.6088867  c-0.074707,0.4046021-0.4707642,0.7023926-0.9058838,0.7160034c0.1193237-0.4885864,0.203064-0.9819946,0.2568359-1.4747925  c0.0103149,0.0007935,0.0200195-0.0036011,0.0303955-0.0024414c0.2158203,0.0234375,0.3974609,0.1210938,0.5117188,0.2744141  C21.8355255,39.21875,21.912674,39.3818359,21.8706818,39.6088867z M21.5725861,42.2653809l-0.0080566,0.7883301  c0,0.2866211-0.2329102,0.5195313-0.5195313,0.5195313h-1.401001c0.2483521-0.4215698,0.4747314-0.8594971,0.6709595-1.3134766  c0.0990601,0.0219116,0.1953735,0.0522461,0.2974243,0.0634766c0.1098633,0.012207,0.2192383,0.0180664,0.3276367,0.0180664  C21.1566925,42.3413086,21.3668365,42.3103027,21.5725861,42.2653809z M12.3413839,27.7006836h1.8740234  c4.1005869,0,7.4365244,3.0498047,7.4365244,6.7885742l-0.0245361,2.4037476  c-0.0532837-0.0089722-0.1035156-0.02771-0.1575928-0.0336304c-0.0767822-0.008667-0.1513672-0.0012207-0.227478-0.0039063  c-0.0400391-0.4455566-0.1005859-0.8948975-0.2041626-1.3598633c-0.1005859-0.4511719-0.4975586-0.7744141-0.9599609-0.7822266  c-2.2353516-0.0361328-4.3447275-1.0097656-5.6430674-2.6040039c-0.5693359-0.6982422-1.7426758-0.699707-2.3139648,0.0004883  c-1.2983398,1.59375-3.4077148,2.5673828-5.6430659,2.6035156c-0.4624023,0.0078125-0.859375,0.3310547-0.9599609,0.7822266  c-0.1036377,0.4653931-0.1642456,0.9151001-0.2042236,1.361084c-0.0761108,0.0022583-0.1505737-0.0054321-0.227417,0.0026855  c-0.0539551,0.0059204-0.104126,0.0245972-0.1572876,0.0335693l-0.024353-2.3934326  C4.904861,30.7504883,8.240798,27.7006836,12.3413839,27.7006836z M4.7930446,39.1220703  C4.9073024,38.96875,5.088943,38.8710938,5.304275,38.8476563c0.0100708-0.0011597,0.0199585-0.0009155,0.0299072-0.001709  c0.0537109,0.4943237,0.1377563,0.9891357,0.2574463,1.479248c-0.4342041-0.0125122-0.8312378-0.3113403-0.9055176-0.7163086  C4.6441188,39.3813477,4.7212672,39.21875,4.7930446,39.1220703z M5.5113063,43.5732422  c-0.2866211,0-0.5195313-0.2329102-0.5195313-0.5297852l-0.0079346-0.7779541  c0.2057495,0.0448608,0.4158325,0.0758057,0.6324463,0.0758057c0.1083984,0,0.2177734-0.0058594,0.3276367-0.0180664  c0.1020508-0.0112305,0.1984863-0.0415649,0.2975464-0.0634766c0.1962891,0.4539795,0.4227295,0.8919067,0.6710815,1.3134766  H5.5113063z M7.2647243,37.7158203c0-0.3461914,0.0239258-0.6938477,0.0722656-1.0493164  c2.3232417-0.2246094,4.4301753-1.2314453,5.9414058-2.8432617c1.5107422,1.6118164,3.6176767,2.6186523,5.9409189,2.8432617  c0.0483398,0.3554688,0.0722656,0.703125,0.0722656,1.0493164c0,4.1630859-2.9223633,8.0986328-6.0131845,8.0986328  C10.1870871,45.8144531,7.2647243,41.8789063,7.2647243,37.7158203z M18.1065216,49.5400391  c0.081543-0.0400391,0.2421875-0.0961914,0.40625-0.0371094c0.2002563,0.0732422,0.3916626,0.1646729,0.5817871,0.2579346  c-0.2497559,0.2780151-0.9332275,0.7261963-2.0944824,0.8553467c-0.5542603,0.0622559-1.2184458-0.079834-1.8223886-0.3126221  C16.3374176,50.1665649,17.3585358,49.906189,18.1065216,49.5400391z M14.9683371,47.5655518v0.7494507  c-0.5337524,0.0643311-1.1063232,0.0995483-1.6899414,0.0995483s-1.156189-0.0352173-1.6899414-0.0995483v-0.7494507  c0.541626,0.1606445,1.1060791,0.2489014,1.6899414,0.2489014S14.4267111,47.7261963,14.9683371,47.5655518z M8.0440207,49.5029297  c0.1640625-0.059082,0.3251953-0.0019531,0.40625,0.0375977c0.7476196,0.3656006,1.7681274,0.6258545,2.9271851,0.7629395  c-0.6030273,0.2318115-1.2660522,0.373291-1.8207397,0.3132324c-1.1612549-0.1292725-1.8443599-0.5773315-2.0942378-0.8555908  C7.6526027,49.6678467,7.8437648,49.5761719,8.0440207,49.5029297z M4.569778,69.7661133H3.585525  c-0.2412109,0-0.4619141-0.0996094-0.6220703-0.2792969c-0.1601563-0.1806641-0.2324219-0.4121094-0.2041016-0.6513672  l0.02948-0.2460938h1.8145752L4.569778,69.7661133z M10.9102316,92.5581055H4.5054469  c0.2817383-0.7451172,1.0024414-1.2763672,1.8452148-1.2763672h3.8979487c0.3647461,0,0.6616211,0.296875,0.6616211,0.6621094  V92.5581055z M7.8955226,78.8334961h2.7371211l-0.2572021,10.4610596c-0.0429077-0.0020752-0.083374-0.0128174-0.1268311-0.0128174  H7.8960109L7.8955226,78.8334961z M6.3682399,76.8334961l0.3364868-11.765625h13.1471558l0.3361816,11.765625H6.3682399z   M18.6607208,78.8334961v10.4482422h-2.3530273c-0.043396,0-0.0838623,0.0107422-0.12677,0.0128174l-0.2572031-10.4610596  H18.6607208z M22.0508575,92.5581055h-6.4047861v-0.6142578c0-0.3652344,0.296875-0.6621094,0.661622-0.6621094h3.8979492  C21.0484161,91.2817383,21.7691193,91.8129883,22.0508575,92.5581055z M23.593338,69.4858398  c-0.1601563,0.1806641-0.3813477,0.2802734-0.6225586,0.2802734h-0.9840698l-0.0336304-1.1767578h1.8143921l0.02948,0.2460938  C23.8252716,69.074707,23.753006,69.3061523,23.593338,69.4858398z M21.8959503,66.5893555l-0.2493896-8.7304688  c-0.015625-0.5527344-0.4975586-0.96875-1.027832-0.9716797c-0.5522461,0.0166016-0.9868164,0.4765625-0.9711914,1.0283203  l0.1472168,5.1523438H6.7619166l0.1473389-5.1523438c0.015625-0.5517578-0.4189453-1.0117188-0.9707031-1.0283203  c-0.5400391,0.0039063-1.012207,0.4189453-1.0283203,0.9716797l-0.2496338,8.7304688H2.561111l1.4580078-12.3378906  c0.2617188-1.2901001,0.9143066-2.4460449,1.8196411-3.3356323c0.6544189,0.8624878,1.9176025,1.5129395,3.4972529,1.6886597  c0.1601563,0.0175781,0.3232422,0.0258789,0.487793,0.0258789c1.2060547,0,2.5024414-0.4545898,3.4545898-1.034668  c1.0810547,0.6586914,2.6049805,1.1572266,3.9423838,1.0083008c1.5794067-0.1756592,2.8424072-0.8257446,3.4968262-1.6877441  c0.8951416,0.8798828,1.5437012,2.0200195,1.810791,3.2932129l1.4663086,12.3798828H21.8959503z M27.6021271,69.6743164h-1.9076538  c0.0944824-0.3477783,0.1318359-0.7119751,0.0878296-1.0771484l-0.0309448-0.2582397  c0.0372314-0.03125,0.0836792-0.048645,0.116394-0.0855103c0.1899414-0.2138672,0.2792969-0.4980469,0.2456055-0.78125  l-0.1612549-1.3613281h1.6500244V69.6743164z M27.6021271,64.5112305h-1.8395386l-0.4547729-3.8388672h2.2943115V64.5112305z   M27.6021271,59.0727539h-2.4838257l-0.4547119-3.8388672h2.9385376V59.0727539z M27.6021271,53.6342773h-3.1644897  c-0.3363037-1.4542847-1.0482178-2.7717285-2.0300293-3.8383789h5.194519V53.6342773z M27.6021271,48.1962891h-7.1999512  c-0.3850708-0.21875-0.7821655-0.4176636-1.2023926-0.5712891c-0.637207-0.234375-1.3388672-0.1914063-1.972168,0.1186523  c-0.0789185,0.0386353-0.1691895,0.0744019-0.2592773,0.1102295v-1.2860107  c0.4092407-0.2904053,0.7943726-0.6245117,1.1560059-0.9946289h2.9206543c0.9116211,0,1.7042847-0.4914551,2.1467285-1.2158203  h4.4104004V48.1962891z M27.6021271,42.7578125h-4.0344849l0.0211182-2.0663452  c0.1102295-0.2259521,0.201355-0.4633789,0.2487183-0.7202759c0.0484619-0.2624512,0.0444946-0.5217896,0.0164185-0.7768555h3.74823  V42.7578125z M47.803299,69.6743164h-4.8671875v-6.8662109h4.8671875V69.6743164z M54.6695099,69.6743164H49.803299v-6.8662109  h4.8662109V69.6743164z M55.1646271,60.8081055H42.4419708v-1.7753906h12.7226563V60.8081055z M68.0044708,69.6743164H56.6695099  v-7.022522c0.2908325-0.1748047,0.4951172-0.4793091,0.4951172-0.843689v-3.7753906c0-0.5527344-0.4472656-1-1-1H41.4419708  c-0.5522461,0-1,0.4472656-1,1v3.7753906c0,0.3638306,0.2040405,0.6679077,0.4941406,0.8428345v7.0233765H29.6021271V38.8925781  c0-0.5649414,0.2646484-1.0795898,0.7080078-1.3769531L48.0196075,25.625c0.484375-0.3242188,1.0834961-0.3242188,1.5668945,0  L67.296463,37.515625v0.0004883c0.4433594,0.296875,0.7080078,0.8115234,0.7080078,1.3764648V69.6743164z M86.7222443,45.8144531  c-3.0908203,0-6.0136719-3.9355469-6.0136719-8.0986328c0-0.3452148,0.0244141-0.6928711,0.0722656-1.0493164  c2.3232422-0.2246094,4.4306641-1.2314453,5.9414063-2.8432617c1.5107422,1.6118164,3.6181641,2.6186523,5.9414063,2.8432617  c0.0478516,0.3564453,0.0722656,0.7041016,0.0722656,1.0493164C92.7359161,41.8789063,89.8130646,45.8144531,86.7222443,45.8144531z   M88.412674,47.5654297v0.7495117c-0.5338745,0.0643311-1.1065674,0.0996094-1.6904297,0.0996094  c-0.5834961,0-1.1558228-0.0352173-1.6894531-0.0994873v-0.7492676c0.5414429,0.1605225,1.1057739,0.2486572,1.6894531,0.2486572  C87.3062897,47.8144531,87.8709259,47.7261353,88.412674,47.5654297z M95.3150177,39.609375  c-0.0742798,0.4044189-0.4746094,0.7005615-0.9058228,0.71521c0.1195679-0.4898682,0.2035522-0.9844971,0.2572632-1.4786377  c0.0097656,0.0007935,0.0198364,0.0005493,0.0294189,0.001709c0.2158203,0.0234375,0.3974609,0.1210938,0.5117188,0.2739258  C95.2788849,39.21875,95.3570099,39.3818359,95.3150177,39.609375z M78.3491974,34.5  c0-3.7490234,3.3359375-6.7988281,7.4355469-6.7988281h1.875c4.1005859,0,7.4365234,3.0498047,7.4365234,6.7988281v1.4790039  c0,0.3326416-0.0308228,0.626709-0.0769043,0.9024048c-0.0357666-0.005249-0.0685425-0.0180664-0.1047363-0.0220337  c-0.0770264-0.0084839-0.1517334-0.0008545-0.2280273-0.0033569c-0.039978-0.4447021-0.1004639-0.8936768-0.2036133-1.359436  c-0.1005859-0.4516602-0.4980469-0.7753906-0.9599609-0.7832031c-2.2363281-0.0361328-4.3457031-1.0092773-5.6435547-2.6035156  c-0.5703125-0.7001953-1.7441406-0.7006836-2.3144531,0.0004883c-1.2978516,1.59375-3.4072266,2.5668945-5.6435547,2.6030273  c-0.4619141,0.0078125-0.859375,0.331543-0.9599609,0.7832031c-0.1032104,0.4660034-0.1637573,0.9152222-0.2036743,1.3601685  c-0.0762939,0.0022583-0.1509399-0.0054932-0.2279663,0.0026245c-0.0355835,0.0039063-0.0684204,0.0169067-0.1036987,0.0221558  c-0.0460815-0.2757568-0.0769653-0.5698853-0.0769653-0.9025269V34.5z M78.2378693,39.121582  c0.1132813-0.152832,0.2949219-0.2504883,0.5107422-0.2739258c0.0095825-0.0011597,0.0196533-0.0009155,0.0294189-0.001709  c0.0537109,0.4942017,0.1377563,0.9888916,0.2573242,1.4787598c-0.4386597-0.013916-0.8305664-0.310791-0.9049072-0.715332  C78.0884552,39.3813477,78.1656036,39.2182617,78.2378693,39.121582z M70.0044708,39.1943359h6.1427612  c-0.0280762,0.2549438-0.0319824,0.5142212,0.0164185,0.7763672c0.2490234,1.3613281,1.5185547,2.3696289,2.9101563,2.3696289  c0.1035156,0,0.2089844-0.0053711,0.3144531-0.0170898c0.1018066-0.0112305,0.1980591-0.0415039,0.2969971-0.0633545  c0.072876,0.1686401,0.1529541,0.333252,0.2332153,0.4979248h-9.9140015V39.1943359z M70.0044708,44.3574219h10.8582764  c0.6173706,0.8720703,1.3482666,1.6280518,2.1700439,2.2109985v1.2859497  c-0.0905762-0.0359497-0.1813354-0.0718994-0.2607422-0.1107178c-0.6347656-0.3095703-1.3339844-0.3525391-1.9716797-0.1186523  c-0.4198608,0.1535645-0.8167114,0.352417-1.2015381,0.5712891h-9.5943604V44.3574219z M70.0044708,69.6743164v-3.5634766h4.0440674  l-0.1612549,1.3613281c-0.0332031,0.2832031,0.0556641,0.5673828,0.2460938,0.78125  c0.0323486,0.036499,0.0783691,0.0537109,0.1151123,0.0847168l-0.0311279,0.2600098  c-0.043457,0.3651123-0.0059814,0.7288208,0.088501,1.0761719H70.0044708z M74.2380524,64.5112305h-4.2335815v-3.8388672h4.6883545  L74.2380524,64.5112305z M74.8822784,59.0727539h-4.8778076v-3.8388672h5.3325806L74.8822784,59.0727539z M70.0044708,53.6342773  v-3.8383789h7.5950928c-0.970459,1.0585327-1.6782227,2.3713379-2.0280151,3.8383789H70.0044708z M77.0298615,69.7661133  c-0.2412109,0-0.4619141-0.0996094-0.6220703-0.2792969c-0.1601563-0.1806641-0.2324219-0.4121094-0.2041016-0.6513672  l0.02948-0.2460938h2.1200562l-0.0755615,1.1767578H77.0298615z M84.3540802,92.5581055h-6.4042969  c0.2525024-0.666687,0.8626709-1.1395874,1.5904541-1.2365112c0.2557983,0.1222534,0.5361938,0.1906128,0.8304443,0.1906128  h3.3544922c0.1429443,0,0.2823486-0.0177002,0.4176025-0.0480957c0.1286011,0.1208496,0.2113037,0.2895508,0.2113037,0.4797363  V92.5581055z M86.7222443,72.6518555c-1.2949219,0-2.3398438,0.9707031-2.3798828,2.2099609L83.881424,89.0551758  c0,0.2724609-0.125,0.4375-0.15625,0.4570313l-3.3330078,0.0039063c-0.0527344-0.0234375-0.1777344-0.1884766-0.1777344-0.4609375  L80.2124786,70.815918l0.2217407-3.4355469h12.5773315l0.2185059,3.3710938v18.3037109c0,0.2724609-0.125,0.4375-0.15625,0.4570313  l-3.3330078,0.0039063c-0.0527344-0.0234375-0.1777344-0.1884766-0.1787109-0.4931641l-0.4589844-14.1611328  C89.0630646,73.6225586,88.0171661,72.6518555,86.7222443,72.6518555z M95.4947052,92.5581055h-6.4042969v-0.6142578  c0-0.1901855,0.0828247-0.3589478,0.2114258-0.4797974c0.1352539,0.0303955,0.2745361,0.0481567,0.4174805,0.0481567h3.3544922  c0.2942505,0,0.574585-0.0683594,0.8304443-0.1906128C94.6320343,91.4185181,95.2422028,91.8914185,95.4947052,92.5581055z   M97.037674,69.4858398c-0.1601563,0.1806641-0.3818359,0.2802734-0.6230469,0.2802734h-1.2458496l-0.0757446-1.1767578h2.1182861  l0.02948,0.2460938C97.2700958,69.074707,97.1978302,69.3061523,97.037674,69.4858398z M95.6205597,66.5893555  c0.0197754-0.0907593,0.0445557-0.1810303,0.038208-0.2753906l-0.5693359-8.4931641  c-0.0371094-0.5507813-0.5185547-0.9521484-1.0644531-0.9316406c-0.5517578,0.0371094-0.96875,0.5136719-0.9316406,1.0644531  l0.4980469,7.4267578H79.8531036l0.4990234-7.4257813c0.0371094-0.5517578-0.3798828-1.0283203-0.9306641-1.0654297  c-0.5683594-0.0234375-1.0273438,0.3808594-1.0654297,0.9306641l-0.5703125,8.4931641  c-0.0063477,0.0947876,0.0184326,0.1853027,0.038269,0.2763672h-1.8185425l1.4589844-12.3378906  c0.4414063-2.1826172,1.9833984-4.0024414,4.0234375-4.7485352c0.1640625-0.0595703,0.3261719-0.0019531,0.40625,0.0375977  c1.1367188,0.5556641,2.8964844,0.8740234,4.828125,0.8740234s3.6914063-0.3183594,4.8271484-0.8740234  c0.0820313-0.0395508,0.2421875-0.0976563,0.4072266-0.0375977c2.0263672,0.7412109,3.5615234,2.5424805,4.015625,4.7075195  l1.4667969,12.3789063H95.6205597z M89.053299,42.1762695c0,0.9824219-1.0234375,1.7519531-2.3310547,1.7519531  s-2.3310547-0.7695313-2.3310547-1.7519531c0-0.4418945,0.3583984-0.7998047,0.7998047-0.7998047  c0.421875,0,0.7666016,0.3256836,0.7978516,0.7392578c0.0712891,0.0703125,0.3242188,0.2128906,0.7333984,0.2128906  c0.4501953,0,0.7099609-0.1723633,0.7490234-0.2319336c0-0.4414063,0.3496094-0.7602539,0.7910156-0.7602539  C88.7046661,41.3364258,89.053299,41.734375,89.053299,42.1762695z M84.4599152,38.8149414  c0,0.5953369-0.3673706,1.0442505-0.8545532,1.0442505s-0.8547363-0.4489136-0.8547363-1.0442505  c0-0.5952759,0.3675537-1.0440063,0.8547363-1.0440063S84.4599152,38.2196655,84.4599152,38.8149414z M90.693985,38.8149414  c0,0.5953369-0.3675537,1.0442505-0.8547363,1.0442505s-0.8543701-0.4489136-0.8543701-1.0442505  c0-0.5952759,0.3671875-1.0440063,0.8543701-1.0440063S90.693985,38.2196655,90.693985,38.8149414z M88.0385895,53.0522461  c0,0.7269897-0.5892944,1.3162842-1.3162842,1.3162842s-1.3162842-0.5892944-1.3162842-1.3162842  s0.5892944-1.3163452,1.3162842-1.3163452S88.0385895,52.3252563,88.0385895,53.0522461z M88.0385895,56.8148193  c0,0.7269897-0.5892944,1.3162842-1.3162842,1.3162842s-1.3162842-0.5892944-1.3162842-1.3162842  s0.5892944-1.3162842,1.3162842-1.3162842S88.0385895,56.0878296,88.0385895,56.8148193z M14.5945578,54.9333496  c0,0.7269897-0.5893555,1.3162842-1.3163452,1.3162842s-1.3162842-0.5892944-1.3162842-1.3162842  s0.5892944-1.3163452,1.3162842-1.3163452S14.5945578,54.2063599,14.5945578,54.9333496z M14.5945578,58.6959229  c0,0.7269897-0.5893555,1.3163452-1.3163452,1.3163452s-1.3162842-0.5893555-1.3162842-1.3163452  c0-0.7269287,0.5892944-1.3162842,1.3162842-1.3162842S14.5945578,57.9689941,14.5945578,58.6959229z M10.947341,42.1757813  c0-0.4418945,0.3579102-0.7998047,0.7998047-0.7998047c0.4213867,0,0.7666016,0.3256836,0.7978516,0.7392578  c0.0712891,0.0703125,0.3237305,0.2133789,0.7329102,0.2133789c0.4501953,0,0.7104492-0.1728516,0.7495117-0.2319336  c0-0.4418945,0.3491211-0.7602539,0.7910156-0.7602539c0.4414063,0,0.7905273,0.3974609,0.7905273,0.8393555  c0,0.9829102-1.0239258,1.7524414-2.3310547,1.7524414S10.947341,43.1586914,10.947341,42.1757813z M10.1612692,39.8589478  c-0.4871826,0-0.8547363-0.4489136-0.8547363-1.0442505c0-0.5952759,0.3675537-1.0440063,0.8547363-1.0440063  s0.8545532,0.4487305,0.8545532,1.0440063C11.0158224,39.4100342,10.6484518,39.8589478,10.1612692,39.8589478z   M15.5408468,38.8146973c0-0.5952759,0.3671875-1.0440063,0.85431-1.0440063c0.4871826,0,0.8547363,0.4487305,0.8547363,1.0440063  c0,0.5953369-0.3675537,1.0442505-0.8547363,1.0442505C15.9080343,39.8589478,15.5408468,39.4100342,15.5408468,38.8146973z"/><text x="0" y="115" fill="#000000" font-size="5px" font-weight="bold" font-family="'Helvetica Neue', Helvetica, Arial-Unicode, Arial, Sans-serif">Created by Llisole</text><text x="0" y="120" fill="#000000" font-size="5px" font-weight="bold" font-family="'Helvetica Neue', Helvetica, Arial-Unicode, Arial, Sans-serif">from the Noun Project</text></svg>